<?xml version="1.0" encoding="UTF-8" standalone="no"?>
<!DOCTYPE svg PUBLIC "-//W3C//DTD SVG 1.1//EN" 
  "http://www.w3.org/Graphics/SVG/1.1/DTD/svg11.dtd">
<svg xmlns="http://www.w3.org/2000/svg" width="60" height="60">
  <radialGradient id="a" cx="66.706" cy="22.942" r="59.341" gradientUnits="userSpaceOnUse" spreadMethod="pad">
    <stop offset="0" stop-color="#06c"/>
    <stop offset="1" stop-color="#039"/>
  </radialGradient>
  <linearGradient id="b" x1="85.76" x2="85.76" y1="12.79" y2="44.682" gradientUnits="userSpaceOnUse">
    <stop offset="0" stop-color="#fff"/>
    <stop offset="1" stop-color="#0d3692"/>
  </linearGradient>
  <path fill="#999" d="M3.63 30.802C3.63 46.075 16.048 58.5 31.313 58.5 46.58 58.5 59 46.075 59 30.802 59 15.53 46.58 3.106 31.314 3.106 16.05 3.106 3.63 15.53 3.63 30.802z" opacity=".36"/>
  <path fill="#06c" d="M1 29.197c0 15.272 12.42 27.697 27.685 27.697 15.267 0 27.685-12.425 27.685-27.697S43.952 1.5 28.685 1.5C13.42 1.5 1 13.925 1 29.197z"/>
  <path fill="url(#a)" d="M49.919 38.046c0 19.776 16.033 35.809 35.808 35.809 19.777 0 35.808-16.033 35.808-35.809S105.505 2.238 85.728 2.238c-19.776 0-35.809 16.032-35.809 35.808z" transform="matrix(.71714 0 0 .71744 -32.794 1.5)"/>
  <path fill="#fff" d="M5.814 31.305c0-15.066 10.76-27.37 24.3-28.158a26.164 26.164 0 0 0-1.429-.041c-14.181 0-25.68 11.502-25.68 25.69 0 6.554 2.459 12.53 6.495 17.068-2.338-4.25-3.686-9.232-3.686-14.56z" opacity=".36"/>
  <path fill="url(#b)" d="M86.278 36.289c12.123 0 23.283-1.762 32.145-4.715-2.829-16.685-16.385-29.335-32.693-29.335-16.191 0-29.674 12.472-32.633 28.981 9.019 3.166 20.578 5.069 33.181 5.069z" opacity=".5" transform="matrix(.71714 0 0 .71744 -32.794 1.5)"/>
  <path fill="#fff" d="M30.267 8.938c-6.397-.024-13.513 2.543-13.507 9 .275 4.159 4.074 5.354 7.157 3.218.779-.672 1.188-1.548 1.218-2.656.044-1.211-.506-2.001-1.218-2.375-.713-.374-1.117-.758-1.22-1.125.344-2.686 3.066-2.65 5.157-2.75 4.27-.043 6.9 1.83 7.104 6.25.202 4.362-3.696 7.448-7.093 9.4-1.635.938-1.632 2.156-1.462 4.496.194 2.575.439 3.926.507 4.76l2.965-.062c.112-2.18.45-4.873 1.115-6.073 1.327-2.128 5.164-1.653 8.906-5.896 3.667-3.89 3.136-10.261-2.163-13.823-2.582-1.735-4.583-2.354-7.473-2.364zm-1.58 30.874c-2.4 0-4.407 2.006-4.406 4.407 0 2.401 2.007 4.375 4.407 4.375s4.375-1.975 4.375-4.375c0-2.402-1.975-4.407-4.376-4.407z"/>
</svg>
